#N canvas -1 31 1204 893 12;
#X declare -lib oscx;
#X msg 153 925 start;
#X obj 326 1019 bng 15 250 50 0 empty empty empty 0 -6 0 8 -262144
-1 -1;
#X obj 442 1137 dac~;
#X obj 249 986 readsf~ 2;
#X obj 255 956 prepend open;
#X obj 996 919 dsp;
#X obj 996 896 tgl 15 0 empty empty empty 17 7 0 10 -262144 -1 -1 1
1;
#X obj 996 840 loadbang;
#X obj 996 868 1;
#X obj 256 927 coll tracks;
#C flags 1 0;
#C 1 Faungirl_Beginning.wav;
#C 2 Faungirl_Middle.wav;
#C 3 Faungirl_End.wav;
#C 4 Hazard_Beginning.wav;
#C 5 Hazard_Middle.wav;
#C 6 Hazard_End.wav;
#C 7 Starlady_Beginning.wav;
#C 8 Starlady_Middle.wav;
#C 9 StarLady_End_2.wav;
#C restore;
#X msg 294 898 flags 1 0;
#X msg 290 871 open;
#X msg 281 838 wclose;
#X floatatom 243 -96 5 0 0 0 - - -;
#X text 625 306 readerC;
#X text 499 314 readerB;
#X obj 560 648 int;
#X obj 676 646 int;
#X obj 466 646 int;
#X obj 105 540 expr if(($f1 == 0 || $f2 == 0 || $f3 == 0) \, 0 \, 1)
;
#X obj 105 586 sel 0 1;
#X obj 377 476 trigger i i;
#X obj 499 474 trigger i i;
#X msg 467 886 start;
#X obj 598 981 bng 15 250 50 0 empty empty empty 0 -6 0 8 -262144 -1
-1;
#X obj 521 948 readsf~ 2;
#X obj 527 918 prepend open;
#X obj 528 889 coll tracks;
#C flags 1 0;
#C 1 Faungirl_Beginning.wav;
#C 2 Faungirl_Middle.wav;
#C 3 Faungirl_End.wav;
#C 4 Hazard_Beginning.wav;
#C 5 Hazard_Middle.wav;
#C 6 Hazard_End.wav;
#C 7 Starlady_Beginning.wav;
#C 8 Starlady_Middle.wav;
#C 9 StarLady_End_2.wav;
#C restore;
#X obj 610 475 trigger i i;
#X obj 677 1004 sendOSC;
#X floatatom 676 1029 5 0 0 0 - - -;
#X msg 710 977 disconnect;
#X floatatom 720 1028 5 0 0 0 - - -;
#X floatatom 677 847 5 0 0 0 - - -;
#X msg 706 955 connect localhost 30200;
#X obj 895 955 import oscx;
#X obj 368 388 change;
#X obj 504 382 change;
#X obj 617 379 change;
#X obj 291 615 delay 2000;
#X msg 676 886 send /rpi2cue \$1;
#X obj 869 340 OSCroute /rpi2end;
#X obj 870 312 dumpOSC 9999;
#X obj 775 457 print;
#X floatatom 885 392 5 0 0 0 - - -;
#X obj 382 429 gate;
#X obj 505 428 gate;
#X obj 627 429 gate;
#X obj 34 629 0;
#X obj 154 147 timer;
#X floatatom 154 178 5 0 0 0 - - -;
#X msg 194 112 bang;
#X msg 144 112 bang;
#X msg 172 11 bang;
#X msg 243 -329 devices;
#X obj 243 -138 atoi;
#X obj 27 239 expr if(($f1 > 1180) \, 0 \, $f2);
#X floatatom 368 343 5 0 0 0 - - -;
#X obj 44 29 metro 1170;
#X obj 241 -65 sel 48 51 53 54 56 65 68 69 70;
#X obj 239 -30 1;
#X obj 249 -20 2;
#X obj 259 -10 3;
#X obj 269 0 4;
#X obj 279 10 5;
#X obj 289 20 6;
#X obj 299 30 7;
#X obj 309 40 8;
#X obj 319 50 9;
#X obj 23 -75 loadbang;
#X obj 41 -22 1;
#X obj 33 -187 print;
#X obj 242 -257 zl group 21;
#X obj 242 -218 zl slice 7;
#X obj 243 -176 zl ecils 7;
#X floatatom 699 -130 5 0 0 0 - - -;
#X obj 610 113 timer;
#X floatatom 610 144 5 0 0 0 - - -;
#X msg 650 78 bang;
#X msg 600 78 bang;
#X msg 628 -23 bang;
#X msg 699 -363 devices;
#X obj 699 -172 atoi;
#X obj 483 205 expr if(($f1 > 1180) \, 0 \, $f2);
#X floatatom 511 335 5 0 0 0 - - -;
#X obj 500 -5 metro 1170;
#X obj 697 -99 sel 48 51 53 54 56 65 68 69 70;
#X obj 695 -64 1;
#X obj 705 -54 2;
#X obj 715 -44 3;
#X obj 725 -34 4;
#X obj 735 -24 5;
#X obj 745 -14 6;
#X obj 755 -4 7;
#X obj 765 6 8;
#X obj 775 16 9;
#X obj 479 -109 loadbang;
#X obj 497 -56 1;
#X obj 489 -221 print;
#X obj 698 -291 zl group 21;
#X obj 698 -252 zl slice 7;
#X obj 699 -210 zl ecils 7;
#X floatatom 1155 -157 5 0 0 0 - - -;
#X obj 1066 86 timer;
#X floatatom 1066 117 5 0 0 0 - - -;
#X msg 1106 51 bang;
#X msg 1056 51 bang;
#X msg 1084 -50 bang;
#X msg 1155 -390 devices;
#X obj 1155 -199 atoi;
#X obj 939 178 expr if(($f1 > 1180) \, 0 \, $f2);
#X floatatom 660 328 5 0 0 0 - - -;
#X obj 956 -32 metro 1170;
#X obj 1153 -126 sel 48 51 53 54 56 65 68 69 70;
#X obj 1151 -91 1;
#X obj 1161 -81 2;
#X obj 1171 -71 3;
#X obj 1181 -61 4;
#X obj 1191 -51 5;
#X obj 1201 -41 6;
#X obj 1211 -31 7;
#X obj 1221 -21 8;
#X obj 1231 -11 9;
#X obj 935 -136 loadbang;
#X obj 953 -83 1;
#X obj 945 -248 print;
#X obj 1154 -318 zl group 21;
#X obj 1154 -279 zl slice 7;
#X obj 1155 -237 zl ecils 7;
#X obj 243 -295 comport 1 57600;
#X floatatom 202 685 5 0 0 0 - - -;
#X obj 144 812 bng 15 250 50 0 empty empty empty 17 7 0 10 -262144
-1 -1;
#X msg 48 1031 open Faungirl_Beginning.wav;
#X connect 0 0 3 0;
#X connect 1 0 16 0;
#X connect 3 0 2 0;
#X connect 3 2 1 0;
#X connect 4 0 3 0;
#X connect 6 0 5 0;
#X connect 7 0 8 0;
#X connect 7 0 35 0;
#X connect 7 0 34 0;
#X connect 8 0 6 0;
#X connect 8 0 44 0;
#X connect 9 0 4 0;
#X connect 10 0 9 0;
#X connect 11 0 9 0;
#X connect 12 0 9 0;
#X connect 13 0 59 0;
#X connect 16 0 27 0;
#X connect 16 0 23 0;
#X connect 17 0 33 0;
#X connect 18 0 9 0;
#X connect 18 0 0 0;
#X connect 19 0 20 0;
#X connect 20 1 39 0;
#X connect 20 1 48 0;
#X connect 21 0 19 0;
#X connect 21 1 18 1;
#X connect 22 0 19 1;
#X connect 22 1 16 1;
#X connect 23 0 25 0;
#X connect 24 0 17 0;
#X connect 25 1 2 1;
#X connect 25 2 24 0;
#X connect 26 0 25 0;
#X connect 27 0 26 0;
#X connect 28 0 17 1;
#X connect 28 0 19 2;
#X connect 29 0 30 0;
#X connect 29 1 32 0;
#X connect 31 0 29 0;
#X connect 33 0 40 0;
#X connect 34 0 29 0;
#X connect 36 0 45 1;
#X connect 37 0 46 1;
#X connect 38 0 47 1;
#X connect 39 0 18 0;
#X connect 40 0 29 0;
#X connect 41 0 44 0;
#X connect 42 0 41 0;
#X connect 44 0 47 0;
#X connect 44 0 46 0;
#X connect 44 0 45 0;
#X connect 45 0 21 0;
#X connect 46 0 22 0;
#X connect 47 0 28 0;
#X connect 48 0 45 0;
#X connect 48 0 46 0;
#X connect 48 0 47 0;
#X connect 49 0 50 0;
#X connect 50 0 56 0;
#X connect 51 0 49 1;
#X connect 52 0 49 0;
#X connect 53 0 52 0;
#X connect 54 0 129 0;
#X connect 55 0 13 0;
#X connect 57 0 36 0;
#X connect 58 0 51 0;
#X connect 59 0 60 0;
#X connect 59 1 61 0;
#X connect 59 2 62 0;
#X connect 59 3 63 0;
#X connect 59 4 64 0;
#X connect 59 5 65 0;
#X connect 59 6 66 0;
#X connect 59 7 67 0;
#X connect 59 8 68 0;
#X connect 60 0 53 0;
#X connect 60 0 56 1;
#X connect 61 0 53 0;
#X connect 61 0 56 1;
#X connect 62 0 53 0;
#X connect 62 0 56 1;
#X connect 63 0 53 0;
#X connect 63 0 56 1;
#X connect 64 0 53 0;
#X connect 64 0 56 1;
#X connect 65 0 53 0;
#X connect 65 0 56 1;
#X connect 66 0 53 0;
#X connect 66 0 56 1;
#X connect 67 0 53 0;
#X connect 67 0 56 1;
#X connect 68 0 53 0;
#X connect 68 0 56 1;
#X connect 69 0 70 0;
#X connect 70 0 58 0;
#X connect 72 0 73 0;
#X connect 73 0 74 0;
#X connect 73 1 74 0;
#X connect 74 0 55 0;
#X connect 74 0 71 0;
#X connect 75 0 86 0;
#X connect 76 0 77 0;
#X connect 77 0 83 0;
#X connect 78 0 76 1;
#X connect 79 0 76 0;
#X connect 80 0 79 0;
#X connect 82 0 75 0;
#X connect 84 0 37 0;
#X connect 85 0 78 0;
#X connect 86 0 87 0;
#X connect 86 1 88 0;
#X connect 86 2 89 0;
#X connect 86 3 90 0;
#X connect 86 4 91 0;
#X connect 86 5 92 0;
#X connect 86 6 93 0;
#X connect 86 7 94 0;
#X connect 86 8 95 0;
#X connect 87 0 80 0;
#X connect 87 0 83 1;
#X connect 88 0 80 0;
#X connect 88 0 83 1;
#X connect 89 0 80 0;
#X connect 89 0 83 1;
#X connect 90 0 80 0;
#X connect 90 0 83 1;
#X connect 91 0 80 0;
#X connect 91 0 83 1;
#X connect 92 0 80 0;
#X connect 92 0 83 1;
#X connect 93 0 80 0;
#X connect 93 0 83 1;
#X connect 94 0 80 0;
#X connect 94 0 83 1;
#X connect 95 0 80 0;
#X connect 95 0 83 1;
#X connect 96 0 97 0;
#X connect 97 0 85 0;
#X connect 99 0 100 0;
#X connect 100 0 101 0;
#X connect 100 1 101 0;
#X connect 101 0 82 0;
#X connect 101 0 98 0;
#X connect 102 0 113 0;
#X connect 103 0 104 0;
#X connect 104 0 110 0;
#X connect 105 0 103 1;
#X connect 106 0 103 0;
#X connect 107 0 106 0;
#X connect 109 0 102 0;
#X connect 111 0 38 0;
#X connect 112 0 105 0;
#X connect 113 0 114 0;
#X connect 113 1 115 0;
#X connect 113 2 116 0;
#X connect 113 3 117 0;
#X connect 113 4 118 0;
#X connect 113 5 119 0;
#X connect 113 6 120 0;
#X connect 113 7 121 0;
#X connect 113 8 122 0;
#X connect 114 0 107 0;
#X connect 114 0 110 1;
#X connect 115 0 107 0;
#X connect 115 0 110 1;
#X connect 116 0 107 0;
#X connect 116 0 110 1;
#X connect 117 0 107 0;
#X connect 117 0 110 1;
#X connect 118 0 107 0;
#X connect 118 0 110 1;
#X connect 119 0 107 0;
#X connect 119 0 110 1;
#X connect 120 0 107 0;
#X connect 120 0 110 1;
#X connect 121 0 107 0;
#X connect 121 0 110 1;
#X connect 122 0 107 0;
#X connect 122 0 110 1;
#X connect 123 0 124 0;
#X connect 124 0 112 0;
#X connect 126 0 127 0;
#X connect 127 0 128 0;
#X connect 127 1 128 0;
#X connect 128 0 109 0;
#X connect 128 0 125 0;
#X connect 129 0 72 0;
#X connect 130 0 9 0;
#X connect 131 0 0 0;
#X connect 132 0 3 0;
