#N canvas 1 168 1232 878 10;
#X msg 163 935 start;
#X obj 336 1029 bng 15 250 50 0 empty empty empty 0 -6 0 8 -262144
-1 -1;
#X obj 451 1147 dac~;
#X obj 259 996 readsf~ 2;
#X obj 265 966 prepend open;
#X obj 1006 929 dsp;
#X obj 1007 907 tgl 15 0 empty empty empty 17 7 0 10 -262144 -1 -1
1 1;
#X obj 1006 777 loadbang;
#X obj 1006 805 1;
#X obj 266 937 coll tracks;
#C flags 1 0;
#C 1 Faungirl_Beginning.wav;
#C 2 Faungirl_Middle.wav;
#C 3 Faungirl_End.wav;
#C 4 Hazard_Beginning.wav;
#C 5 Hazard_Middle.wav;
#C 6 Hazard_End.wav;
#C 7 Starlady_Beginning.wav;
#C 8 Starlady_Middle.wav;
#C 9 StarLady_End_2.wav;
#C restore;
#X msg 304 908 flags 1 0;
#X msg 300 881 open;
#X msg 291 848 wclose;
#X text 651 261 readerC;
#X obj 570 658 int;
#X obj 686 656 int;
#X obj 476 656 int;
#X obj 115 550 expr if(($f1 == 0 || $f2 == 0 || $f3 == 0) \, 0 \, 1)
;
#X obj 115 596 sel 0 1;
#X msg 477 896 start;
#X obj 608 991 bng 15 250 50 0 empty empty empty 0 -6 0 8 -262144 -1
-1;
#X obj 531 958 readsf~ 2;
#X obj 537 928 prepend open;
#X obj 538 899 coll tracks;
#C flags 1 0;
#C 1 Faungirl_Beginning.wav;
#C 2 Faungirl_Middle.wav;
#C 3 Faungirl_End.wav;
#C 4 Hazard_Beginning.wav;
#C 5 Hazard_Middle.wav;
#C 6 Hazard_End.wav;
#C 7 Starlady_Beginning.wav;
#C 8 Starlady_Middle.wav;
#C 9 StarLady_End_2.wav;
#C restore;
#X floatatom 870 283 5 0 0 0 - - -;
#X obj 387 429 gate;
#X obj 44 639 0;
#X obj 164 157 timer;
#X floatatom 164 188 5 0 0 0 - - -;
#X msg 204 122 bang;
#X msg 154 122 bang;
#X msg 182 21 bang;
#X msg 253 -319 devices;
#X floatatom 345 292 5 0 0 0 - - -;
#X obj 249 -20 1;
#X obj 259 -10 2;
#X obj 269 0 3;
#X obj 279 10 4;
#X obj 289 20 5;
#X obj 299 30 6;
#X obj 309 40 7;
#X obj 319 50 8;
#X obj 329 60 9;
#X obj 33 -65 loadbang;
#X obj 51 -12 1;
#X floatatom 709 -120 5 0 0 0 - - -;
#X obj 620 123 timer;
#X floatatom 620 154 5 0 0 0 - - -;
#X msg 660 88 bang;
#X msg 610 88 bang;
#X msg 638 -13 bang;
#X msg 699 -288 devices;
#X obj 705 -54 1;
#X obj 715 -44 2;
#X obj 725 -34 3;
#X obj 735 -24 4;
#X obj 745 -14 5;
#X obj 755 -4 6;
#X obj 765 6 7;
#X obj 775 16 8;
#X obj 785 26 9;
#X floatatom 139 843 5 0 0 0 - - -;
#X obj 999 858 delay 100;
#X floatatom 255 -217 5 0 0 0 - - -;
#X obj 251 -54 sel 69 5 149 165 212 181 21 216 197;
#X obj 707 -89 sel 69 5 149 165 212 181 21 216 197;
#X floatatom 1053 -120 5 0 0 0 - - -;
#X obj 964 123 timer;
#X floatatom 964 154 5 0 0 0 - - -;
#X msg 1004 88 bang;
#X msg 954 88 bang;
#X msg 982 -13 bang;
#X msg 1043 -288 devices;
#X obj 1049 -54 1;
#X obj 1059 -44 2;
#X obj 1069 -34 3;
#X obj 1079 -24 4;
#X obj 1089 -14 5;
#X obj 1099 -4 6;
#X obj 1109 6 7;
#X obj 1119 16 8;
#X obj 1129 26 9;
#X obj 1051 -89 sel 69 5 149 165 212 181 21 216 197;
#X floatatom 587 742 5 0 0 0 - - -;
#X obj 507 845 bng 15 250 50 0 empty empty empty 17 7 0 10 -262144
-1 -1;
#X obj 670 563 bng 15 250 50 0 empty empty empty 17 7 0 10 -262144
-1 -1;
#X obj 253 -285 comport 2 115200;
#X obj 700 -248 comport 0 115200;
#X obj 1044 -248 comport 1 115200;
#X obj 302 625 delay 500;
#X floatatom 717 743 0 0 0 0 - - -;
#X obj 408 399 pack 0 0 0;
#X obj 59 282 bng 15 250 50 0 empty empty empty 17 7 0 10 -262144 -1
-1;
#X obj 130 286 sel 0;
#X floatatom 448 295 5 0 0 0 - - -;
#X floatatom 553 296 5 0 0 0 - - -;
#X obj 321 325 change;
#X obj 428 329 change;
#X obj 539 331 change;
#X obj 735 510 print;
#X obj 181 657 print expr;
#X msg 72 437 0 0 0;
#X msg 145 440 1 0 0;
#X obj 539 357 t b i;
#X obj 427 356 t b i;
#X obj 430 549 unpack 0 0 0;
#X obj 54 39 metro 400;
#X obj 37 249 expr if(($f1 > 410) \, 0 \, $f2);
#X obj 493 215 expr if(($f1 > 410) \, 0 \, $f2);
#X obj 837 215 expr if(($f1 > 410) \, 0 \, $f2);
#X floatatom 717 689 0 0 0 0 - - -;
#X obj 811 374 print end;
#X msg 683 899 start;
#X obj 743 958 readsf~ 2;
#X obj 743 931 prepend open;
#X obj 744 902 coll tracks;
#C flags 1 0;
#C 1 Faungirl_Beginning.wav;
#C 2 Faungirl_Middle.wav;
#C 3 Faungirl_End.wav;
#C 4 Hazard_Beginning.wav;
#C 5 Hazard_Middle.wav;
#C 6 Hazard_End.wav;
#C 7 Starlady_Beginning.wav;
#C 8 Starlady_Middle.wav;
#C 9 StarLady_End_2.wav;
#C restore;
#X obj 823 984 bng 15 250 50 0 empty empty empty 0 -6 0 8 -262144 -1
-1;
#X obj 522 1007 *~ 0.82843;
#X connect 0 0 3 0;
#X connect 1 0 14 0;
#X connect 3 0 2 0;
#X connect 3 2 1 0;
#X connect 4 0 3 0;
#X connect 6 0 5 0;
#X connect 7 0 8 0;
#X connect 8 0 24 0;
#X connect 8 0 62 0;
#X connect 9 0 4 0;
#X connect 10 0 9 0;
#X connect 11 0 9 0;
#X connect 12 0 9 0;
#X connect 14 0 23 0;
#X connect 14 0 19 0;
#X connect 15 0 110 0;
#X connect 15 0 115 0;
#X connect 15 0 112 0;
#X connect 16 0 9 0;
#X connect 16 0 0 0;
#X connect 17 0 18 0;
#X connect 17 0 100 0;
#X connect 18 1 26 0;
#X connect 18 1 89 0;
#X connect 19 0 21 0;
#X connect 20 0 15 0;
#X connect 21 0 117 0;
#X connect 21 2 20 0;
#X connect 22 0 21 0;
#X connect 23 0 22 0;
#X connect 24 0 25 0;
#X connect 24 0 111 0;
#X connect 25 0 99 0;
#X connect 25 0 17 0;
#X connect 25 0 105 0;
#X connect 26 0 25 0;
#X connect 27 0 28 0;
#X connect 28 0 107 0;
#X connect 29 0 27 1;
#X connect 30 0 27 0;
#X connect 31 0 30 0;
#X connect 32 0 86 0;
#X connect 33 0 96 0;
#X connect 34 0 31 0;
#X connect 34 0 107 1;
#X connect 35 0 31 0;
#X connect 35 0 107 1;
#X connect 36 0 31 0;
#X connect 36 0 107 1;
#X connect 37 0 31 0;
#X connect 37 0 107 1;
#X connect 38 0 31 0;
#X connect 38 0 107 1;
#X connect 39 0 31 0;
#X connect 39 0 107 1;
#X connect 40 0 31 0;
#X connect 40 0 107 1;
#X connect 41 0 31 0;
#X connect 41 0 107 1;
#X connect 42 0 31 0;
#X connect 42 0 107 1;
#X connect 43 0 44 0;
#X connect 44 0 106 0;
#X connect 45 0 65 0;
#X connect 46 0 47 0;
#X connect 47 0 108 0;
#X connect 48 0 46 1;
#X connect 49 0 46 0;
#X connect 50 0 49 0;
#X connect 51 0 87 0;
#X connect 52 0 50 0;
#X connect 52 0 108 1;
#X connect 53 0 50 0;
#X connect 53 0 108 1;
#X connect 54 0 50 0;
#X connect 54 0 108 1;
#X connect 55 0 50 0;
#X connect 55 0 108 1;
#X connect 56 0 50 0;
#X connect 56 0 108 1;
#X connect 57 0 50 0;
#X connect 57 0 108 1;
#X connect 58 0 50 0;
#X connect 58 0 108 1;
#X connect 59 0 50 0;
#X connect 59 0 108 1;
#X connect 60 0 50 0;
#X connect 60 0 108 1;
#X connect 61 0 9 0;
#X connect 61 0 0 0;
#X connect 62 0 6 0;
#X connect 63 0 64 0;
#X connect 64 0 34 0;
#X connect 64 1 35 0;
#X connect 64 2 36 0;
#X connect 64 3 37 0;
#X connect 64 4 38 0;
#X connect 64 5 39 0;
#X connect 64 6 40 0;
#X connect 64 7 41 0;
#X connect 64 8 42 0;
#X connect 65 0 52 0;
#X connect 65 1 53 0;
#X connect 65 2 54 0;
#X connect 65 3 55 0;
#X connect 65 4 56 0;
#X connect 65 5 57 0;
#X connect 65 6 58 0;
#X connect 65 7 59 0;
#X connect 65 8 60 0;
#X connect 66 0 82 0;
#X connect 67 0 68 0;
#X connect 68 0 109 0;
#X connect 69 0 67 1;
#X connect 70 0 67 0;
#X connect 71 0 70 0;
#X connect 72 0 88 0;
#X connect 73 0 71 0;
#X connect 73 0 109 1;
#X connect 74 0 71 0;
#X connect 74 0 109 1;
#X connect 75 0 71 0;
#X connect 75 0 109 1;
#X connect 76 0 71 0;
#X connect 76 0 109 1;
#X connect 77 0 71 0;
#X connect 77 0 109 1;
#X connect 78 0 71 0;
#X connect 78 0 109 1;
#X connect 79 0 71 0;
#X connect 79 0 109 1;
#X connect 80 0 71 0;
#X connect 80 0 109 1;
#X connect 81 0 71 0;
#X connect 81 0 109 1;
#X connect 82 0 73 0;
#X connect 82 1 74 0;
#X connect 82 2 75 0;
#X connect 82 3 76 0;
#X connect 82 4 77 0;
#X connect 82 5 78 0;
#X connect 82 6 79 0;
#X connect 82 7 80 0;
#X connect 82 8 81 0;
#X connect 83 0 23 0;
#X connect 83 0 19 0;
#X connect 84 0 19 0;
#X connect 85 0 15 0;
#X connect 86 0 63 0;
#X connect 87 0 45 0;
#X connect 88 0 66 0;
#X connect 89 0 16 0;
#X connect 90 0 115 0;
#X connect 90 0 112 0;
#X connect 91 0 25 1;
#X connect 94 0 97 0;
#X connect 95 0 98 0;
#X connect 96 0 91 0;
#X connect 97 0 104 0;
#X connect 98 0 103 0;
#X connect 101 0 17 0;
#X connect 102 0 17 0;
#X connect 103 0 91 0;
#X connect 103 1 91 2;
#X connect 104 0 91 0;
#X connect 104 1 91 1;
#X connect 105 0 16 1;
#X connect 105 1 14 1;
#X connect 105 2 15 1;
#X connect 106 0 29 0;
#X connect 106 0 48 0;
#X connect 106 0 69 0;
#X connect 107 0 92 0;
#X connect 107 0 93 0;
#X connect 107 0 33 0;
#X connect 108 0 94 0;
#X connect 109 0 95 0;
#X connect 112 0 113 0;
#X connect 113 0 2 1;
#X connect 113 2 116 0;
#X connect 114 0 113 0;
#X connect 115 0 114 0;
#X connect 116 0 24 0;
#X connect 117 0 2 0;
#X connect 117 0 2 1;
