#N canvas 480 39 1440 851 12;
#X declare -lib oscx;
#X msg 53 -845 start;
#X obj 226 -751 bng 15 250 50 0 empty empty empty 0 -6 0 8 -262144
-1 -1;
#X obj 342 -633 dac~;
#X obj 149 -784 readsf~ 2;
#X obj 155 -814 prepend open;
#X obj 1287 -796 dsp;
#X obj 1287 -819 tgl 15 0 empty empty empty 17 7 0 10 -262144 -1 -1
1 1;
#X obj 1287 -875 loadbang;
#X obj 1287 -847 1;
#X obj 156 -843 coll tracks;
#C flags 1 0;
#C 1 Faungirl_Beginning.wav;
#C 2 Faungirl_Middle.wav;
#C 3 Faungirl_End.wav;
#C 4 Hazard_Beginning.wav;
#C 5 Hazard_Middle.wav;
#C 6 Hazard_End.wav;
#C 7 Starlady_Beginning.wav;
#C 8 Starlady_Middle.wav;
#C 9 StarLady_End_2.wav;
#C restore;
#X msg 194 -872 flags 1 0;
#X msg 190 -899 open;
#X msg 181 -932 wclose;
#X obj 709 -882 import oscx;
#X obj 725 -1007 loadbang;
#X obj 107 -995 OSCroute /rpi2cue;
#X obj 500 -832 sendOSC;
#X msg 533 -859 disconnect;
#X msg 529 -881 connect localhost 9999;
#X obj 108 -1023 dumpOSC 30200;
#X obj 497 -991 1;
#X msg 498 -950 send /rpi2end \$1;
#X connect 0 0 3 0;
#X connect 1 0 20 0;
#X connect 3 0 2 0;
#X connect 3 2 1 0;
#X connect 4 0 3 0;
#X connect 6 0 5 0;
#X connect 7 0 8 0;
#X connect 8 0 6 0;
#X connect 9 0 4 0;
#X connect 10 0 9 0;
#X connect 11 0 9 0;
#X connect 12 0 9 0;
#X connect 14 0 13 0;
#X connect 14 0 18 0;
#X connect 15 0 9 0;
#X connect 15 0 0 0;
#X connect 17 0 16 0;
#X connect 18 0 16 0;
#X connect 19 0 15 0;
#X connect 20 0 21 0;
#X connect 21 0 16 0;
