#N canvas -95 83 1225 902 10;
#X msg 163 935 start;
#X obj 336 1029 bng 15 250 50 0 empty empty empty 0 -6 0 8 -262144
-1 -1;
#X obj 451 1147 dac~;
#X obj 259 996 readsf~ 2;
#X obj 265 966 prepend open;
#X obj 1006 929 dsp;
#X obj 1007 907 tgl 15 0 empty empty empty 17 7 0 10 -262144 -1 -1
1 1;
#X obj 1006 777 loadbang;
#X obj 1006 805 1;
#X obj 266 937 coll tracks;
#C flags 1 0;
#C 1 Faungirl_Beginning.wav;
#C 2 Faungirl_Middle.wav;
#C 3 Faungirl_End.wav;
#C 4 Hazard_Beginning.wav;
#C 5 Hazard_Middle.wav;
#C 6 Hazard_End.wav;
#C 7 Starlady_Beginning.wav;
#C 8 Starlady_Middle.wav;
#C 9 StarLady_End_2.wav;
#C restore;
#X msg 304 908 flags 1 0;
#X msg 300 881 open;
#X msg 291 848 wclose;
#X text 623 285 readerC;
#X text 507 289 readerB;
#X obj 570 658 int;
#X obj 686 656 int;
#X obj 476 656 int;
#X obj 115 550 expr if(($f1 == 0 || $f2 == 0 || $f3 == 0) \, 0 \, 1)
;
#X obj 115 596 sel 0 1;
#X obj 387 486 trigger i i;
#X obj 509 484 trigger i i;
#X msg 477 896 start;
#X obj 608 991 bng 15 250 50 0 empty empty empty 0 -6 0 8 -262144 -1
-1;
#X obj 531 958 readsf~ 2;
#X obj 537 928 prepend open;
#X obj 538 899 coll tracks;
#C flags 1 0;
#C 1 Faungirl_Beginning.wav;
#C 2 Faungirl_Middle.wav;
#C 3 Faungirl_End.wav;
#C 4 Hazard_Beginning.wav;
#C 5 Hazard_Middle.wav;
#C 6 Hazard_End.wav;
#C 7 Starlady_Beginning.wav;
#C 8 Starlady_Middle.wav;
#C 9 StarLady_End_2.wav;
#C restore;
#X obj 620 485 trigger i i;
#X obj 347 363 change;
#X obj 520 368 change;
#X obj 634 366 change;
#X obj 785 467 print;
#X floatatom 894 405 5 0 0 0 - - -;
#X obj 392 439 gate;
#X obj 515 438 gate;
#X obj 637 439 gate;
#X obj 44 639 0;
#X obj 164 157 timer;
#X floatatom 164 188 5 0 0 0 - - -;
#X msg 204 122 bang;
#X msg 154 122 bang;
#X msg 182 21 bang;
#X msg 253 -319 devices;
#X obj 37 249 expr if(($f1 > 1180) \, 0 \, $f2);
#X floatatom 348 293 5 0 0 0 - - -;
#X obj 54 39 metro 1170;
#X obj 249 -20 1;
#X obj 259 -10 2;
#X obj 269 0 3;
#X obj 279 10 4;
#X obj 289 20 5;
#X obj 299 30 6;
#X obj 309 40 7;
#X obj 319 50 8;
#X obj 329 60 9;
#X obj 33 -65 loadbang;
#X obj 51 -12 1;
#X floatatom 709 -120 5 0 0 0 - - -;
#X obj 620 123 timer;
#X floatatom 620 154 5 0 0 0 - - -;
#X msg 660 88 bang;
#X msg 610 88 bang;
#X msg 638 -13 bang;
#X msg 699 -288 devices;
#X obj 493 215 expr if(($f1 > 1180) \, 0 \, $f2);
#X floatatom 519 309 5 0 0 0 - - -;
#X obj 705 -54 1;
#X obj 715 -44 2;
#X obj 725 -34 3;
#X obj 735 -24 4;
#X obj 745 -14 5;
#X obj 755 -4 6;
#X obj 765 6 7;
#X obj 775 16 8;
#X obj 785 26 9;
#X floatatom 658 307 5 0 0 0 - - -;
#X floatatom 211 695 5 0 0 0 - - -;
#X obj 154 822 bng 15 250 50 0 empty empty empty 17 7 0 10 -262144
-1 -1;
#X floatatom 426 932 5 0 0 0 - - -;
#X msg 27 1091 open ~/Titans_Sounds_Final/Faungirl_Beginning.wav;
#X obj 999 858 delay 100;
#X floatatom 255 -217 5 0 0 0 - - -;
#X obj 251 -54 sel 69 5 149 165 212 181 21 216 197;
#X obj 707 -89 sel 69 5 149 165 212 181 21 216 197;
#X floatatom 1053 -120 5 0 0 0 - - -;
#X obj 964 123 timer;
#X floatatom 964 154 5 0 0 0 - - -;
#X msg 1004 88 bang;
#X msg 954 88 bang;
#X msg 982 -13 bang;
#X msg 1043 -288 devices;
#X obj 837 215 expr if(($f1 > 1180) \, 0 \, $f2);
#X obj 1049 -54 1;
#X obj 1059 -44 2;
#X obj 1069 -34 3;
#X obj 1079 -24 4;
#X obj 1089 -14 5;
#X obj 1099 -4 6;
#X obj 1109 6 7;
#X obj 1119 16 8;
#X obj 1129 26 9;
#X obj 1051 -89 sel 69 5 149 165 212 181 21 216 197;
#X obj 981 415 print end;
#X obj 157 517 bng 15 250 50 0 empty empty empty 17 7 0 10 -262144
-1 -1;
#X obj 427 388 0;
#X obj 382 324 sel 0;
#X obj 574 370 0;
#X obj 532 335 sel 0;
#X obj 692 367 0;
#X obj 663 332 sel 0;
#X obj 682 946 netsend;
#X msg 879 957 disconnect;
#X floatatom 682 973 0 0 0 0 - - -;
#X msg 828 911 connect 192.168.2.2 3000;
#X obj 951 359 netreceive 3000;
#X floatatom 587 742 5 0 0 0 - - -;
#X obj 507 845 bng 15 250 50 0 empty empty empty 17 7 0 10 -262144
-1 -1;
#X msg 687 910 send \$1;
#X obj 624 608 bng 15 250 50 0 empty empty empty 17 7 0 10 -262144
-1 -1;
#X obj 253 -285 comport 2 115200;
#X obj 700 -248 comport 0 115200;
#X obj 1044 -248 comport 1 115200;
#X obj 302 625 delay 500;
#X obj 772 823 bng 15 250 50 0 empty empty empty 17 7 0 10 -262144
-1 -1;
#X obj 843 1013 print;
#X floatatom 717 743 0 0 0 0 - - -;
#X obj 873 867 delay 80000;
#X connect 0 0 3 0;
#X connect 1 0 15 0;
#X connect 3 0 2 0;
#X connect 3 2 1 0;
#X connect 4 0 3 0;
#X connect 6 0 5 0;
#X connect 7 0 8 0;
#X connect 7 0 126 0;
#X connect 8 0 32 0;
#X connect 8 0 80 0;
#X connect 9 0 4 0;
#X connect 10 0 9 0;
#X connect 11 0 9 0;
#X connect 12 0 9 0;
#X connect 15 0 26 0;
#X connect 15 0 22 0;
#X connect 16 0 117 0;
#X connect 17 0 9 0;
#X connect 17 0 0 0;
#X connect 18 0 19 0;
#X connect 19 1 36 0;
#X connect 19 1 122 0;
#X connect 20 0 18 0;
#X connect 20 1 17 1;
#X connect 21 0 18 1;
#X connect 21 0 103 0;
#X connect 21 1 15 1;
#X connect 22 0 24 0;
#X connect 23 0 16 0;
#X connect 24 0 2 1;
#X connect 24 2 23 0;
#X connect 25 0 24 0;
#X connect 26 0 25 0;
#X connect 27 0 16 1;
#X connect 27 0 18 2;
#X connect 27 0 103 0;
#X connect 28 0 33 1;
#X connect 29 0 34 1;
#X connect 30 0 35 1;
#X connect 32 0 35 0;
#X connect 32 0 34 0;
#X connect 32 0 33 0;
#X connect 32 0 31 0;
#X connect 33 0 20 0;
#X connect 34 0 21 0;
#X connect 35 0 27 0;
#X connect 36 0 33 0;
#X connect 36 0 34 0;
#X connect 36 0 35 0;
#X connect 37 0 38 0;
#X connect 38 0 43 0;
#X connect 39 0 37 1;
#X connect 40 0 37 0;
#X connect 41 0 40 0;
#X connect 42 0 119 0;
#X connect 43 0 44 0;
#X connect 44 0 28 0;
#X connect 44 0 105 0;
#X connect 45 0 39 0;
#X connect 45 0 60 0;
#X connect 45 0 87 0;
#X connect 46 0 41 0;
#X connect 46 0 43 1;
#X connect 47 0 41 0;
#X connect 47 0 43 1;
#X connect 48 0 41 0;
#X connect 48 0 43 1;
#X connect 49 0 41 0;
#X connect 49 0 43 1;
#X connect 50 0 41 0;
#X connect 50 0 43 1;
#X connect 51 0 41 0;
#X connect 51 0 43 1;
#X connect 52 0 41 0;
#X connect 52 0 43 1;
#X connect 53 0 41 0;
#X connect 53 0 43 1;
#X connect 54 0 41 0;
#X connect 54 0 43 1;
#X connect 55 0 56 0;
#X connect 56 0 45 0;
#X connect 57 0 83 0;
#X connect 58 0 59 0;
#X connect 59 0 64 0;
#X connect 60 0 58 1;
#X connect 61 0 58 0;
#X connect 62 0 61 0;
#X connect 63 0 120 0;
#X connect 64 0 65 0;
#X connect 65 0 107 0;
#X connect 65 0 29 0;
#X connect 66 0 62 0;
#X connect 66 0 64 1;
#X connect 67 0 62 0;
#X connect 67 0 64 1;
#X connect 68 0 62 0;
#X connect 68 0 64 1;
#X connect 69 0 62 0;
#X connect 69 0 64 1;
#X connect 70 0 62 0;
#X connect 70 0 64 1;
#X connect 71 0 62 0;
#X connect 71 0 64 1;
#X connect 72 0 62 0;
#X connect 72 0 64 1;
#X connect 73 0 62 0;
#X connect 73 0 64 1;
#X connect 74 0 62 0;
#X connect 74 0 64 1;
#X connect 75 0 109 0;
#X connect 75 0 30 0;
#X connect 76 0 9 0;
#X connect 76 0 77 0;
#X connect 77 0 0 0;
#X connect 79 0 3 0;
#X connect 80 0 6 0;
#X connect 81 0 82 0;
#X connect 82 0 46 0;
#X connect 82 1 47 0;
#X connect 82 2 48 0;
#X connect 82 3 49 0;
#X connect 82 4 50 0;
#X connect 82 5 51 0;
#X connect 82 6 52 0;
#X connect 82 7 53 0;
#X connect 82 8 54 0;
#X connect 83 0 66 0;
#X connect 83 1 67 0;
#X connect 83 2 68 0;
#X connect 83 3 69 0;
#X connect 83 4 70 0;
#X connect 83 5 71 0;
#X connect 83 6 72 0;
#X connect 83 7 73 0;
#X connect 83 8 74 0;
#X connect 84 0 101 0;
#X connect 85 0 86 0;
#X connect 86 0 91 0;
#X connect 87 0 85 1;
#X connect 88 0 85 0;
#X connect 89 0 88 0;
#X connect 90 0 121 0;
#X connect 91 0 75 0;
#X connect 92 0 89 0;
#X connect 92 0 91 1;
#X connect 93 0 89 0;
#X connect 93 0 91 1;
#X connect 94 0 89 0;
#X connect 94 0 91 1;
#X connect 95 0 89 0;
#X connect 95 0 91 1;
#X connect 96 0 89 0;
#X connect 96 0 91 1;
#X connect 97 0 89 0;
#X connect 97 0 91 1;
#X connect 98 0 89 0;
#X connect 98 0 91 1;
#X connect 99 0 89 0;
#X connect 99 0 91 1;
#X connect 100 0 89 0;
#X connect 100 0 91 1;
#X connect 101 0 92 0;
#X connect 101 1 93 0;
#X connect 101 2 94 0;
#X connect 101 3 95 0;
#X connect 101 4 96 0;
#X connect 101 5 97 0;
#X connect 101 6 98 0;
#X connect 101 7 99 0;
#X connect 101 8 100 0;
#X connect 103 0 18 0;
#X connect 104 0 33 1;
#X connect 105 0 104 0;
#X connect 106 0 34 1;
#X connect 107 0 106 0;
#X connect 108 0 35 1;
#X connect 109 0 108 0;
#X connect 110 0 112 0;
#X connect 111 0 110 0;
#X connect 113 0 110 0;
#X connect 113 0 124 0;
#X connect 114 0 32 0;
#X connect 114 0 102 0;
#X connect 115 0 26 0;
#X connect 116 0 22 0;
#X connect 117 0 110 0;
#X connect 118 0 16 0;
#X connect 119 0 81 0;
#X connect 120 0 57 0;
#X connect 121 0 84 0;
#X connect 122 0 17 0;
#X connect 123 0 113 0;
#X connect 125 0 117 0;
#X connect 126 0 113 0;
